<svg width="90" height="90" viewBox="0 0 90 90" fill="none" xmlns="http://www.w3.org/2000/svg">
<g filter="url(#filter0_d_14_829)">
<rect x="13" y="13" width="64" height="64" rx="32" fill="#35BD64"/>
</g>
<path d="M30 40.5V36.75C30 33.015 33.015 30 36.75 30H40.5" stroke="white" stroke-width="1.5" stroke-linecap="round" stroke-linejoin="round"/>
<path d="M49.5 30H53.25C56.985 30 60 33.015 60 36.75V40.5" stroke="white" stroke-width="1.5" stroke-linecap="round" stroke-linejoin="round"/>
<path d="M60 51V53.25C60 56.985 56.985 60 53.25 60H51" stroke="white" stroke-width="1.5" stroke-linecap="round" stroke-linejoin="round"/>
<path d="M40.5 60H36.75C33.015 60 30 56.985 30 53.25V49.5" stroke="white" stroke-width="1.5" stroke-linecap="round" stroke-linejoin="round"/>
<path d="M52.5 41.25V48.75C52.5 51.75 51 53.25 48 53.25H42C39 53.25 37.5 51.75 37.5 48.75V41.25C37.5 38.25 39 36.75 42 36.75H48C51 36.75 52.5 38.25 52.5 41.25Z" stroke="white" stroke-width="1.5" stroke-linecap="round" stroke-linejoin="round"/>
<path d="M55.5 45H34.5" stroke="white" stroke-width="1.5" stroke-linecap="round" stroke-linejoin="round"/>
<defs>
<filter id="filter0_d_14_829" x="0" y="0" width="90" height="90" filterUnits="userSpaceOnUse" color-interpolation-filters="sRGB">
<feFlood flood-opacity="0" result="BackgroundImageFix"/>
<feColorMatrix in="SourceAlpha" type="matrix" values="0 0 0 0 0 0 0 0 0 0 0 0 0 0 0 0 0 0 127 0" result="hardAlpha"/>
<feOffset/>
<feGaussianBlur stdDeviation="6.5"/>
<feComposite in2="hardAlpha" operator="out"/>
<feColorMatrix type="matrix" values="0 0 0 0 0 0 0 0 0 0 0 0 0 0 0 0 0 0 0.05 0"/>
<feBlend mode="normal" in2="BackgroundImageFix" result="effect1_dropShadow_14_829"/>
<feBlend mode="normal" in="SourceGraphic" in2="effect1_dropShadow_14_829" result="shape"/>
</filter>
</defs>
</svg>
