<svg width="111" height="88" viewBox="0 0 111 88" fill="none" xmlns="http://www.w3.org/2000/svg">
<path d="M110.5 55.2511C110.5 85.7655 85.8757 88 55.5 88C25.1243 88 0.5 85.7655 0.5 55.2511C0.5 24.7368 25.1243 0 55.5 0C85.8757 0 110.5 24.7368 110.5 55.2511Z" fill="url(#paint0_linear_9_418)"/>
<g clip-path="url(#clip0_9_418)">
<path d="M33.0518 30.2806V44.4473C33.0518 46.0056 31.7768 47.2806 30.2185 47.2806H14.6351V38.2423C15.6693 39.4748 17.256 40.2398 19.0127 40.1973C20.4435 40.169 21.7326 39.6165 22.696 38.6956C23.1351 38.3273 23.5035 37.8598 23.7868 37.3498C24.2968 36.4856 24.5801 35.4656 24.5518 34.4031C24.5093 32.7456 23.7727 31.2865 22.6252 30.2806H33.0518Z" stroke="#3A2664" stroke-width="1.5" stroke-linecap="round" stroke-linejoin="round"/>
<path d="M42.9685 47.2806V51.5306C42.9685 53.8823 41.0701 55.7806 38.7185 55.7806H37.3018C37.3018 54.2223 36.0268 52.9473 34.4685 52.9473C32.9101 52.9473 31.6351 54.2223 31.6351 55.7806H25.9685C25.9685 54.2223 24.6935 52.9473 23.1351 52.9473C21.5768 52.9473 20.3018 54.2223 20.3018 55.7806H18.8851C16.5335 55.7806 14.6351 53.8823 14.6351 51.5306V47.2806H30.2185C31.7768 47.2806 33.0518 46.0056 33.0518 44.4473V34.5306H35.6585C36.6785 34.5306 37.6135 35.0832 38.1235 35.9615L40.5459 40.1973H38.7185C37.9393 40.1973 37.3018 40.8348 37.3018 41.614V45.864C37.3018 46.6431 37.9393 47.2806 38.7185 47.2806H42.9685Z" stroke="#3A2664" stroke-width="1.5" stroke-linecap="round" stroke-linejoin="round"/>
<path d="M23.1351 58.6139C24.6999 58.6139 25.9684 57.3454 25.9684 55.7806C25.9684 54.2158 24.6999 52.9473 23.1351 52.9473C21.5703 52.9473 20.3018 54.2158 20.3018 55.7806C20.3018 57.3454 21.5703 58.6139 23.1351 58.6139Z" stroke="#3A2664" stroke-width="1.5" stroke-linecap="round" stroke-linejoin="round"/>
<path d="M34.4685 58.6139C36.0333 58.6139 37.3018 57.3454 37.3018 55.7806C37.3018 54.2158 36.0333 52.9473 34.4685 52.9473C32.9037 52.9473 31.6351 54.2158 31.6351 55.7806C31.6351 57.3454 32.9037 58.6139 34.4685 58.6139Z" stroke="#3A2664" stroke-width="1.5" stroke-linecap="round" stroke-linejoin="round"/>
<path d="M42.9684 44.4473V47.2806H38.7184C37.9393 47.2806 37.3018 46.6431 37.3018 45.8639V41.6139C37.3018 40.8348 37.9393 40.1973 38.7184 40.1973H40.5459L42.9684 44.4473Z" stroke="#3A2664" stroke-width="1.5" stroke-linecap="round" stroke-linejoin="round"/>
<path d="M24.5517 34.5306C24.5517 36.2306 23.8009 37.7464 22.6251 38.7806C21.6192 39.6589 20.3159 40.1972 18.8851 40.1972C15.7542 40.1972 13.2184 37.6614 13.2184 34.5306C13.2184 32.7456 14.0401 31.1447 15.3434 30.1106C16.3209 29.3314 17.5534 28.8639 18.8851 28.8639C22.0159 28.8639 24.5517 31.3997 24.5517 34.5306Z" stroke="#3A2664" stroke-width="1.5" stroke-miterlimit="10" stroke-linecap="round" stroke-linejoin="round"/>
<path d="M19.2392 32.7598V34.8848L17.4684 35.9473" stroke="#3A2664" stroke-width="1.5" stroke-miterlimit="10" stroke-linecap="round" stroke-linejoin="round"/>
</g>
<path d="M46.8018 44.4473H64.3013" stroke="black"/>
<path d="M60.7467 40.6193L64.5747 44.4473L60.7467 48.2753" stroke="black"/>
<path d="M82.5748 46.4731C85.0159 46.4731 86.9948 44.4942 86.9948 42.0531C86.9948 39.612 85.0159 37.6331 82.5748 37.6331C80.1337 37.6331 78.1548 39.612 78.1548 42.0531C78.1548 44.4942 80.1337 46.4731 82.5748 46.4731Z" stroke="#32BC62" stroke-width="1.5"/>
<path d="M70.7032 39.4748C73.494 27.2065 91.6698 27.2206 94.4465 39.489C96.0757 46.6856 91.599 52.7773 87.6748 56.5456C84.8273 59.294 80.3223 59.294 77.4607 56.5456C73.5507 52.7773 69.074 46.6715 70.7032 39.4748Z" stroke="#32BC62" stroke-width="1.5"/>
<defs>
<linearGradient id="paint0_linear_9_418" x1="15.8604" y1="5.47534" x2="86.5435" y2="76.3327" gradientUnits="userSpaceOnUse">
<stop stop-color="#D9FFE6"/>
<stop offset="1" stop-color="white"/>
</linearGradient>
<clipPath id="clip0_9_418">
<rect width="34" height="34" fill="white" transform="translate(11.8018 27.4473)"/>
</clipPath>
</defs>
</svg>
