<svg width="110" height="88" viewBox="0 0 110 88" fill="none" xmlns="http://www.w3.org/2000/svg">
<path d="M110 55.1497C110 85.3892 85.3757 87.6036 55 87.6036C24.6243 87.6036 0 85.3892 0 55.1497C0 24.9103 24.6243 0.396362 55 0.396362C85.3757 0.396362 110 24.9103 110 55.1497Z" fill="url(#paint0_linear_9_399)"/>
<path d="M43.7944 53.1456C43.8227 54.2051 43.5401 55.2082 43.0315 56.0699C42.749 56.5785 42.3676 57.0447 41.9437 57.4262C40.969 58.3303 39.6834 58.8813 38.2565 58.9237C36.1939 58.966 34.3715 57.9065 33.3685 56.2819C32.8316 55.4484 32.5067 54.4453 32.4926 53.3858C32.4502 51.6058 33.2413 49.9952 34.5128 48.9357C35.4734 48.1445 36.6884 47.6501 38.0164 47.6218C41.1385 47.5512 43.7238 50.0234 43.7944 53.1456Z" stroke="#3A2664" stroke-width="1.5" stroke-miterlimit="10" stroke-linecap="round" stroke-linejoin="round"/>
<path d="M35.9397 53.3152L37.3666 54.6714L40.3192 51.8176" stroke="#3A2664" stroke-width="1.5" stroke-linecap="round" stroke-linejoin="round"/>
<path d="M15.7802 38.3542L28.2545 45.5733L40.6441 38.3966" stroke="#3A2664" stroke-width="1.5" stroke-linecap="round" stroke-linejoin="round"/>
<path d="M28.2545 58.3725V45.5591" stroke="#3A2664" stroke-width="1.5" stroke-linecap="round" stroke-linejoin="round"/>
<path d="M41.8308 40.7983V48.7944C41.8308 48.865 41.8308 48.9215 41.8167 48.9921C40.8278 48.1304 39.5563 47.6218 38.1436 47.6218C36.8156 47.6218 35.5866 48.088 34.6118 48.865C33.3121 49.8963 32.4927 51.4927 32.4927 53.2727C32.4927 54.3323 32.7893 55.3353 33.3121 56.1829C33.4392 56.409 33.5946 56.6209 33.7641 56.8187L31.1789 58.2456C29.5684 59.1497 26.9407 59.1497 25.3302 58.2456L17.7862 54.0639C16.0768 53.1173 14.6782 50.744 14.6782 48.7944V40.7983C14.6782 38.8488 16.0768 36.4754 17.7862 35.5289L25.3302 31.3472C26.9407 30.443 29.5684 30.443 31.1789 31.3472L38.7228 35.5289C40.4322 36.4754 41.8308 38.8488 41.8308 40.7983Z" stroke="#3A2664" stroke-width="1.5" stroke-linecap="round" stroke-linejoin="round"/>
<path d="M46.2072 44.7963H63.7067" stroke="black"/>
<path d="M60.1521 40.9683L63.9801 44.7963L60.1521 48.6243" stroke="black"/>
<path d="M81.933 46.8165C84.3673 46.8165 86.3407 44.8431 86.3407 42.4088C86.3407 39.9745 84.3673 38.0011 81.933 38.0011C79.4987 38.0011 77.5253 39.9745 77.5253 42.4088C77.5253 44.8431 79.4987 46.8165 81.933 46.8165Z" stroke="#32BC62" stroke-width="1.5"/>
<path d="M70.0943 39.8377C72.8774 27.6035 91.0027 27.6176 93.7716 39.8518C95.3962 47.0285 90.932 53.1032 87.0188 56.861C84.1792 59.6017 79.6867 59.6017 76.833 56.861C72.9339 53.1032 68.4697 47.0143 70.0943 39.8377Z" stroke="#32BC62" stroke-width="1.5"/>
<defs>
<linearGradient id="paint0_linear_9_399" x1="15.3604" y1="5.82237" x2="85.4023" y2="76.6753" gradientUnits="userSpaceOnUse">
<stop stop-color="#D9FFE6"/>
<stop offset="1" stop-color="white"/>
</linearGradient>
</defs>
</svg>
