<svg width="63" height="63" viewBox="0 0 63 63" fill="none" xmlns="http://www.w3.org/2000/svg">
<path opacity="0.7" d="M31.5 63C48.897 63 63 48.897 63 31.5C63 14.103 48.897 0 31.5 0C14.103 0 0 14.103 0 31.5C0 48.897 14.103 63 31.5 63Z" fill="#3A2664" fill-opacity="0.07"/>
<path d="M31.7649 22.1983V27.9279" stroke="#35BD64" stroke-width="1.5" stroke-miterlimit="10" stroke-linecap="round"/>
<path d="M31.7993 14.5589C25.4675 14.5589 20.3402 19.6863 20.3402 26.018V29.6313C20.3402 30.8013 19.8584 32.5563 19.2562 33.5542L17.071 37.2018C15.729 39.4558 16.6581 41.9679 19.1357 42.7938C27.3602 45.5295 36.2556 45.5295 44.48 42.7938C46.8028 42.0195 47.8008 39.301 46.5447 37.2018L44.3596 33.5542C43.7574 32.5563 43.2756 30.784 43.2756 29.6313V26.018C43.2584 19.7207 38.0966 14.5589 31.7993 14.5589Z" stroke="#35BD64" stroke-width="1.5" stroke-miterlimit="10" stroke-linecap="round"/>
<path d="M37.4944 43.4992C37.4944 46.6479 34.9135 49.2288 31.7648 49.2288C30.1991 49.2288 28.7538 48.5749 27.7215 47.5426C26.6891 46.5102 26.0353 45.0649 26.0353 43.4992" stroke="#35BD64" stroke-width="1.5" stroke-miterlimit="10"/>
</svg>
