<svg width="335" height="217" viewBox="0 0 335 217" fill="none" xmlns="http://www.w3.org/2000/svg">
<g clip-path="url(#clip0_2_9714)">
<g opacity="0.787">
<path d="M137.161 107.835H45.1901V22.035H137.161V107.835Z" fill="#32BC62"/>
<mask id="mask0_2_9714" style="mask-type:luminance" maskUnits="userSpaceOnUse" x="48" y="24" width="87" height="10">
<path d="M134.282 33.0849H48.0701V24.685H134.282V33.0849Z" fill="white"/>
</mask>
<g mask="url(#mask0_2_9714)">
<path d="M134.282 33.0849H48.0701V24.685H134.282V33.0849Z" fill="white"/>
</g>
<mask id="mask1_2_9714" style="mask-type:luminance" maskUnits="userSpaceOnUse" x="48" y="41" width="87" height="9">
<path d="M134.282 49.754H48.0701V41.354H134.282V49.754Z" fill="white"/>
</mask>
<g mask="url(#mask1_2_9714)">
<path d="M134.282 49.754H48.0701V41.354H134.282V49.754Z" fill="white"/>
</g>
<path d="M134.282 41.4201H48.0701V33.015H134.282V41.4201Z" fill="#32BC62"/>
<mask id="mask2_2_9714" style="mask-type:luminance" maskUnits="userSpaceOnUse" x="48" y="58" width="87" height="9">
<path d="M134.282 66.423H48.0701V58.023H134.282V66.423Z" fill="white"/>
</mask>
<g mask="url(#mask2_2_9714)">
<path d="M134.282 66.423H48.0701V58.023H134.282V66.423Z" fill="white"/>
</g>
<path d="M134.282 58.09H48.0701V49.685H134.282V58.09Z" fill="#32BC62"/>
<mask id="mask3_2_9714" style="mask-type:luminance" maskUnits="userSpaceOnUse" x="48" y="74" width="87" height="9">
<path d="M134.282 82.912H48.0701V74.512H134.282V82.912Z" fill="white"/>
</mask>
<g mask="url(#mask3_2_9714)">
<path d="M134.282 82.912H48.0701V74.512H134.282V82.912Z" fill="white"/>
</g>
<path d="M134.282 74.578H48.0701V66.178H134.282V74.578Z" fill="#32BC62"/>
<path d="M134.282 91.172H48.0701V82.772H134.282V91.172Z" fill="#32BC62"/>
<mask id="mask4_2_9714" style="mask-type:luminance" maskUnits="userSpaceOnUse" x="48" y="91" width="87" height="9">
<path d="M134.282 99.576H48.0701V91.176H134.282V99.576Z" fill="white"/>
</mask>
<g mask="url(#mask4_2_9714)">
<path d="M134.282 99.576H48.0701V91.176H134.282V99.576Z" fill="white"/>
</g>
<path d="M134.282 107.835H48.0701V99.43H134.282V107.835Z" fill="#32BC62"/>
<mask id="mask5_2_9714" style="mask-type:luminance" maskUnits="userSpaceOnUse" x="45" y="0" width="93" height="16">
<path d="M137.161 15.925H45.1899V-3.05176e-05H137.161V15.925Z" fill="white"/>
</mask>
<g mask="url(#mask5_2_9714)">
<path d="M137.161 15.925H45.1899V-3.05176e-05H137.161V15.925Z" fill="#3B2865"/>
</g>
<path d="M112.818 127.459H100.705C99.9967 127.457 99.3181 127.175 98.8173 126.674C98.3164 126.173 98.0342 125.494 98.0321 124.786V113.848C98.0342 113.14 98.3164 112.461 98.8173 111.961C99.3181 111.46 99.9968 111.178 100.705 111.176H112.818C113.526 111.178 114.204 111.46 114.705 111.961C115.205 112.461 115.488 113.14 115.489 113.848V124.786C115.487 125.494 115.205 126.173 114.705 126.673C114.205 127.174 113.526 127.457 112.818 127.459Z" fill="#45391D"/>
<path d="M80.2968 86.99C79.8496 87.0212 79.4007 87.0084 78.956 86.952C78.729 86.86 78.1059 86.493 78.1979 86.082C78.2549 85.825 78.717 86.233 78.905 86.158C79.093 86.083 78.5199 86.028 78.4919 85.931C78.4639 85.834 78.9649 85.784 79.1449 85.752C79.3249 85.72 79.8448 86.138 80.2568 86.252C80.6688 86.366 80.2978 86.9919 80.2978 86.9919" fill="#D8A982"/>
<path d="M94.8617 85.7771C93.9542 86.7812 92.7583 87.4798 91.4379 87.7771C89.5589 88.0281 86.7858 88.585 85.9298 88.593C83.9982 88.2036 82.0908 87.7028 80.2169 87.093C80.1567 86.9308 80.162 86.7514 80.2318 86.593C80.2866 86.401 80.4092 86.2354 80.5768 86.127C80.5768 86.127 83.9059 86.208 85.4589 86.427C86.1049 86.517 90.5018 83.895 91.1918 82.313C91.4628 81.692 94.8627 85.778 94.8627 85.778" fill="#C9FCE9"/>
<path d="M49.459 126.562H18.696V101.196H49.459V126.562Z" fill="#E65924"/>
<path d="M34.077 126.562H3.31506V101.196H34.077V126.562Z" fill="#FD9C28"/>
<path d="M49.4399 120.129H44.5659L44.9949 118.757L44.5659 117.777H49.4399V120.129Z" fill="#45391D"/>
<path d="M34.0769 109.045H29.2031L29.6321 107.673L29.2031 106.694H34.0769V109.045Z" fill="#EAF7F9"/>
<path d="M34.0759 106.694H38.9509L38.521 108.066L38.9509 109.045H34.0759V106.694Z" fill="#45391D"/>
<path d="M3.31396 120.4H8.18896L7.75903 121.772L8.18896 122.752H3.31396V120.4Z" fill="#EAF7F9"/>
<path d="M5.33008 106.36H14.1831V102.916H5.33008V106.36Z" fill="#EAF7F9"/>
<path d="M46.1431 101.219H15.3809V75.853H46.1431V101.219Z" fill="#847D3D"/>
<path d="M30.7629 101.219H0V75.853H30.7629V101.219Z" fill="#BDA24D"/>
<path d="M46.1249 94.785H41.2511L41.681 93.415L41.2511 92.435H46.1249V94.786" fill="#45391D"/>
<path d="M30.7631 83.703H25.8871L26.317 82.331L25.8871 81.352H30.7631V83.703Z" fill="#B8DB70"/>
<path d="M30.7631 81.352H35.6381L35.2069 82.722L35.6381 83.702H30.7631V81.352Z" fill="#45391D"/>
<path d="M0 95.059H4.87402L4.44409 96.431L4.87402 97.411H0V95.059Z" fill="#B8DB70"/>
<path d="M2.01404 81.016H10.8671V77.571H2.01404V81.015" fill="#B8DB70"/>
<path d="M62.9651 128.231H54.8059V63.831H62.9651V128.231Z" fill="#45391D"/>
<path d="M106.72 112.908H86.0481C85.3138 112.906 84.6103 112.613 84.0911 112.094C83.5719 111.575 83.2792 110.871 83.2771 110.137V104.95C83.2792 104.216 83.5719 103.512 84.0911 102.993C84.6103 102.474 85.3138 102.181 86.0481 102.179H106.72C107.454 102.181 108.158 102.474 108.677 102.993C109.197 103.512 109.49 104.216 109.492 104.95V110.137C109.49 110.871 109.197 111.575 108.677 112.094C108.158 112.613 107.454 112.906 106.72 112.908Z" fill="#4AC195"/>
<path d="M65.6741 121.231L98.884 122.577V108.869L65.123 109.42L65.6741 121.231Z" fill="#002822"/>
<path d="M57.106 124.292C57.1062 121.565 58.1894 118.951 60.1174 117.023C62.0454 115.095 64.6604 114.011 67.387 114.011C70.1137 114.011 72.7287 115.094 74.6567 117.022C76.5848 118.95 77.668 121.565 77.668 124.292C77.668 127.019 76.5848 129.634 74.6567 131.562C72.7287 133.49 70.1137 134.573 67.387 134.573C64.6604 134.573 62.0454 133.489 60.1174 131.561C58.1894 129.633 57.1062 127.019 57.106 124.292Z" fill="#847D3D"/>
<path d="M61.4629 124.291C61.4628 123.513 61.6161 122.742 61.9138 122.023C62.2115 121.305 62.6478 120.651 63.198 120.101C63.7482 119.551 64.4014 119.114 65.1204 118.817C65.8393 118.519 66.6098 118.366 67.3879 118.366C68.1661 118.366 68.9366 118.519 69.6555 118.817C70.3744 119.114 71.0277 119.551 71.5779 120.101C72.1281 120.651 72.5646 121.305 72.8623 122.023C73.16 122.742 73.3131 123.513 73.313 124.291C73.313 125.862 72.6888 127.369 71.5776 128.481C70.4665 129.592 68.9593 130.216 67.3879 130.216C65.8165 130.216 64.3096 129.592 63.1985 128.481C62.0873 127.369 61.4629 125.862 61.4629 124.291Z" fill="#002822"/>
<path d="M105.306 126.47C105.306 125.406 105.516 124.353 105.923 123.37C106.33 122.388 106.926 121.495 107.679 120.742C108.431 119.99 109.323 119.394 110.306 118.987C111.289 118.58 112.342 118.37 113.406 118.37C115.554 118.37 117.615 119.223 119.134 120.742C120.653 122.261 121.506 124.322 121.506 126.47C121.506 128.618 120.653 130.679 119.134 132.198C117.615 133.717 115.554 134.57 113.406 134.57C112.342 134.57 111.289 134.36 110.306 133.953C109.323 133.546 108.431 132.95 107.679 132.198C106.926 131.445 106.33 130.552 105.923 129.57C105.516 128.587 105.306 127.534 105.306 126.47Z" fill="#847D3D"/>
<path d="M108.74 126.47C108.74 125.232 109.232 124.044 110.107 123.169C110.983 122.293 112.17 121.801 113.408 121.8C114.021 121.8 114.629 121.921 115.195 122.156C115.762 122.39 116.276 122.734 116.71 123.168C117.143 123.602 117.487 124.116 117.722 124.683C117.957 125.25 118.077 125.857 118.077 126.47C118.077 127.083 117.957 127.69 117.722 128.257C117.487 128.824 117.143 129.338 116.71 129.772C116.276 130.206 115.762 130.55 115.195 130.785C114.629 131.019 114.021 131.14 113.408 131.14C112.795 131.14 112.188 131.019 111.621 130.784C111.055 130.549 110.54 130.205 110.107 129.772C109.673 129.338 109.33 128.823 109.095 128.257C108.861 127.69 108.74 127.083 108.74 126.47Z" fill="#002822"/>
<path d="M107.534 100.058V106.178H98.9669L78.4879 119.641V129.641H98.7521C99.2559 129.641 99.7549 129.542 100.22 129.349C100.686 129.156 101.109 128.873 101.465 128.517C101.821 128.161 102.104 127.738 102.296 127.272C102.489 126.807 102.588 126.308 102.588 125.804V123.543C102.588 122.337 102.88 121.15 103.44 120.082C103.999 119.014 104.809 118.098 105.8 117.411C106.931 116.629 108.274 116.21 109.649 116.211H116.117C116.533 116.211 116.945 116.129 117.33 115.97C117.714 115.811 118.064 115.577 118.358 115.283C118.652 114.989 118.886 114.639 119.045 114.255C119.204 113.87 119.286 113.458 119.286 113.042V103.451C119.285 102.55 118.926 101.687 118.288 101.05C117.651 100.414 116.787 100.056 115.886 100.056H107.532" fill="#FD9C28"/>
<path d="M65.7769 112.695L62.9648 112.386L78.7649 74.952C79.77 72.5598 81.4599 70.5181 83.6221 69.0834C85.7842 67.6488 88.3222 66.8854 90.917 66.8891H104.167C105.737 66.8909 107.243 67.5155 108.354 68.6258C109.464 69.7362 110.089 71.2416 110.091 72.812V106.173H107.398V72.807C107.397 71.9503 107.056 71.1291 106.45 70.5232C105.845 69.9173 105.024 69.5763 104.167 69.575H90.917C88.8518 69.5726 86.8319 70.1805 85.1111 71.3223C83.3903 72.4642 82.0451 74.0891 81.2449 75.993L65.781 112.693" fill="#45391D"/>
<path d="M79.3019 130.379C79.107 130.379 78.92 130.302 78.7822 130.164C78.6443 130.026 78.5668 129.839 78.5668 129.644V122.11C78.5644 119.616 77.5727 117.225 75.8093 115.462C74.0458 113.698 71.6547 112.706 69.1608 112.704C69.1318 112.704 69.1029 112.704 69.0749 112.699C69.0179 112.692 63.2499 112.072 58.8439 115.506C58.6903 115.626 58.4955 115.68 58.3022 115.656C58.1089 115.632 57.9329 115.532 57.8129 115.379C57.7535 115.303 57.7096 115.216 57.6838 115.123C57.658 115.03 57.651 114.933 57.6628 114.837C57.6746 114.741 57.705 114.649 57.7526 114.565C57.8002 114.481 57.8638 114.407 57.9399 114.348C61.2001 111.996 65.1955 110.891 69.2009 111.234C72.0772 111.248 74.8312 112.4 76.8613 114.438C78.8913 116.475 80.0324 119.234 80.0358 122.11V129.644C80.0358 129.839 79.9586 130.026 79.8207 130.164C79.6829 130.302 79.4969 130.379 79.3019 130.379Z" fill="#45391D"/>
<path d="M54.8049 128.232H0.905029V126.262H54.8049V128.232Z" fill="#45391D"/>
<path d="M54.8059 128.231H52.97V105.197H54.8059V128.231Z" fill="#45391D"/>
<path d="M102.139 89.848L101.168 102.179H85.8678C85.8678 102.179 85.0578 98.732 87.5968 98.579C90.1358 98.426 96.2101 97.512 96.2101 97.512C96.2101 97.512 95.9099 89.853 100.592 88.576C100.781 88.5248 100.979 88.5194 101.17 88.5604C101.361 88.6014 101.539 88.6876 101.691 88.8117C101.842 88.9358 101.961 89.0944 102.038 89.2739C102.115 89.4535 102.149 89.6489 102.135 89.8439" fill="#002822"/>
<path d="M93.7341 81.516C92.7443 82.0813 91.6014 82.3202 90.468 82.199C90.468 82.199 90.1321 82.114 90.2971 81.719C90.2377 81.5467 90.1874 81.3715 90.1462 81.194C90.0654 80.9119 90.0003 80.6255 89.9519 80.336L90.9163 79.321L91.8279 78.353C91.8724 78.9936 92.0688 79.6145 92.4001 80.1646C92.7315 80.7146 93.1886 81.1772 93.7341 81.516Z" fill="#F5C99D"/>
<path d="M91.9771 79.23C91.6274 80.0863 90.9759 80.7846 90.146 81.193C89.997 80.648 89.8999 80.079 89.8999 80.079L90.916 79.32L91.9771 79.23Z" fill="#D8A982"/>
<path d="M88.8701 80.287C88.8701 80.287 91.8613 80.66 92.0703 78.822C92.2793 76.984 92.8082 75.795 90.9072 75.477C89.0062 75.159 88.5549 75.822 88.3329 76.419C88.1109 77.016 88.0971 80.141 88.8691 80.286" fill="#F5C99D"/>
<path d="M93.0159 75.179C93.0399 75.147 93.102 75.119 93.24 75.107C93.1591 75.065 93.069 75.043 92.9778 75.043C92.9647 74.9065 92.9117 74.7768 92.8255 74.6701C92.7393 74.5635 92.6237 74.4845 92.493 74.443C92.5481 74.4725 92.5959 74.514 92.6326 74.5646C92.6693 74.6152 92.6939 74.6735 92.7049 74.735C92.3049 74.356 91.4729 74.1 89.2049 74.365C86.2129 74.715 87.2737 76.6 87.6717 76.815C88.0697 77.03 89.0238 76.364 89.7508 76.394C90.4778 76.424 90.6506 77.465 90.9046 77.6C91.1586 77.735 91.0507 77.483 91.3777 77.321C91.7047 77.159 91.755 77.707 91.678 78.069C91.601 78.431 92.0721 78.885 92.0721 78.885L92.512 78.372C93.0169 77.43 93.2168 76.3546 93.0848 75.294C93.0638 75.256 93.0437 75.216 93.0247 75.176" fill="#070707"/>
<path d="M96.5481 92.973C96.5481 92.973 82.9051 93.583 81.0481 94.934C79.1911 96.285 75.9299 107.673 75.9299 107.673C75.9299 107.673 76.5901 108.248 78.5481 107.673C80.0063 105.828 81.2829 103.846 82.3601 101.755C83.2971 99.616 83.631 98.538 84.033 98.648C84.886 98.88 93.633 99.183 96.218 97.514C97.873 96.446 96.332 92.972 96.551 92.973" fill="#E65924"/>
<path d="M93.7351 81.239C93.7351 81.239 95.4839 82.677 96.0349 86.972C96.5859 91.267 97.205 95.046 96.866 95.2C94.475 96.279 88.0409 95.176 88.2009 92.621C88.3609 90.066 88.953 82.491 90.468 81.821C91.5056 81.4052 92.6178 81.2064 93.7351 81.239Z" fill="#EAF7F9"/>
<path d="M81.2741 93.075C81.1374 93.1312 80.984 93.1312 80.8473 93.0751C80.7106 93.0189 80.6017 92.911 80.5441 92.775L77.7111 85.987C77.6546 85.8504 77.6544 85.6969 77.7106 85.5601C77.7668 85.4234 77.8749 85.3144 78.0111 85.257C78.1479 85.2004 78.3015 85.2003 78.4384 85.2565C78.5753 85.3127 78.6845 85.4207 78.7421 85.557L81.5741 92.344C81.6309 92.4808 81.6311 92.6344 81.5749 92.7714C81.5186 92.9084 81.4106 93.0175 81.2741 93.075Z" fill="#45391D"/>
<path d="M81.1019 89.254C80.6715 89.3807 80.2299 89.4651 79.7831 89.5061C79.5431 89.4651 78.8561 89.242 78.8561 88.82C78.8561 88.557 79.3949 88.856 79.5619 88.742C79.7289 88.628 79.162 88.697 79.109 88.608C79.056 88.519 79.5389 88.363 79.7089 88.294C79.8789 88.225 80.477 88.519 80.902 88.541C81.327 88.563 81.1019 89.254 81.1019 89.254Z" fill="#F5C99D"/>
<path d="M95.0631 84.929C94.3932 86.1057 93.3756 87.0464 92.15 87.622C90.37 88.273 87.7808 89.414 86.9498 89.607C84.9803 89.6424 83.0104 89.564 81.0499 89.372C80.9564 89.2262 80.9235 89.0497 80.9581 88.88C80.9699 88.6808 81.0536 88.4928 81.194 88.351C81.194 88.351 84.462 87.713 86.026 87.591C86.676 87.539 90.4039 84.03 90.7379 82.338C90.8679 81.673 95.069 84.93 95.069 84.93" fill="#EAF7F9"/>
<path d="M78.3141 107.291C78.3141 107.291 78.4682 109.073 78.0922 109.258L73.2711 109.249C73.2711 109.249 73.271 108.692 74.045 108.569C74.819 108.446 76.18 107.992 76.411 106.982C76.642 105.972 78.3112 107.291 78.3112 107.291" fill="#E65924"/>
<path d="M75.7211 88.282H77.91C78.1869 88.2822 78.4569 88.3678 78.6835 88.527C78.91 88.6863 79.082 88.9115 79.1759 89.172L79.808 90.932C79.871 91.108 79.8967 91.2951 79.8834 91.4816C79.8702 91.668 79.8184 91.8497 79.7311 92.015L79.368 92.703C78.9396 93.5147 78.3114 94.204 77.5428 94.7057C76.7743 95.2075 75.8905 95.5053 74.975 95.571L72.3051 95.762L74.442 89.208C74.5301 88.9383 74.7013 88.7033 74.931 88.5367C75.1608 88.3702 75.4373 88.2817 75.7211 88.282Z" fill="#45391D"/>
</g>
<path d="M284.383 41.0109H306.21V23.0109H284.388V41.0109" fill="#655686"/>
<path d="M295.293 41.0109H317.116V23.0109H295.293V41.0109Z" fill="#8474A8"/>
<path d="M284.395 36.446H287.854L287.548 35.474L287.854 34.774H284.395V36.442" fill="#01483F"/>
<path d="M295.293 28.586H298.751L298.451 27.6109L298.751 26.911H295.293V28.581" fill="#E3F0FF"/>
<path d="M295.293 26.915H291.836L292.136 27.89L291.836 28.59H295.293V26.92" fill="#01483F"/>
<path d="M317.117 36.64H313.657L313.963 37.613L313.657 38.313H317.117V36.645" fill="#E3F0FF"/>
<path d="M315.688 26.677H309.406V24.235H315.688V26.677Z" fill="white"/>
<path d="M236.473 41.011H264.765V17.682H236.473V41.011Z" fill="#847D3D"/>
<path d="M250.618 41.011H278.91V17.682H250.618V41.011Z" fill="#BDA24D"/>
<path d="M236.491 35.094H240.973L240.579 33.832L240.973 32.932H236.491V35.094Z" fill="#45391D"/>
<path d="M250.618 24.9H255.102L254.702 23.638L255.102 22.738H250.618V24.9Z" fill="#B8DB70"/>
<path d="M250.618 22.738H246.135L246.529 23.998L246.135 24.898H250.618V22.736" fill="#45391D"/>
<path d="M278.912 35.345H274.428L274.828 36.605L274.428 37.505H278.912V35.342" fill="#B8DB70"/>
<path d="M277.059 22.431H268.917V19.264H277.059V22.431Z" fill="#B8DB70"/>
<path d="M198.311 191.18H186.798V41.012H198.311V191.18Z" fill="#5ECA83"/>
<path d="M334.219 191.18H323.044V41.012H334.219V191.18Z" fill="#5ECA83"/>
<path d="M334.22 44.533H198.31V41.012H334.22V44.533Z" fill="#5ECA83"/>
<path d="M334.22 116.094H198.31V112.187H334.22V116.094Z" fill="#5ECA83"/>
<path d="M334.22 176.537H198.31V171.882H334.22V176.537Z" fill="#5ECA83"/>
<path d="M266.968 112.187H300.815V84.2811H266.973V112.187" fill="#847D3D"/>
<path d="M283.891 112.187H317.732V84.2811H283.891V112.187Z" fill="#BDA24D"/>
<path d="M266.989 105.113H272.352L271.879 103.603L272.352 102.524H266.989V105.113Z" fill="#9DC3F3"/>
<path d="M283.891 92.917H289.253L288.781 91.408L289.253 90.329H283.891V92.917Z" fill="#B8DB70"/>
<path d="M283.891 90.328H278.527L279.001 91.837L278.527 92.916H283.891V90.328Z" fill="#45391D"/>
<path d="M317.732 105.41H312.369L312.841 106.918L312.369 107.997H317.732V105.41Z" fill="#B8DB70"/>
<path d="M315.517 89.961H305.777V86.172H315.517V89.961Z" fill="#B8DB70"/>
<path d="M223.538 112.187H257.379V84.2811H223.538V112.187Z" fill="#655686"/>
<path d="M240.459 112.187H274.3V84.2811H240.459V112.187Z" fill="#8474A8"/>
<path d="M223.559 105.113H228.922L228.45 103.603L228.922 102.524H223.559V105.113Z" fill="#01483F"/>
<path d="M240.459 92.917H245.822L245.349 91.408L245.822 90.329H240.459V92.917Z" fill="#EAF7F9"/>
<path d="M240.46 90.328H235.097L235.569 91.837L235.097 92.916H240.46V90.328Z" fill="#01483F"/>
<path d="M274.302 105.41H268.94L269.412 106.918L268.94 107.997H274.302V105.41Z" fill="#EAF7F9"/>
<path d="M256.21 109.198H243.142V104.113H256.21V109.198Z" fill="#EAF7F9"/>
<path d="M217.223 171.791H245.995V148.068H217.223V171.791Z" fill="#C3DAFC"/>
<path d="M231.608 171.791H260.38V148.068H231.608V171.791Z" fill="#BDA24D"/>
<path d="M217.241 165.775H221.8L221.4 164.493L221.8 163.576H217.241V165.776" fill="#9DC3F3"/>
<path d="M231.608 155.411H236.168L235.768 154.129L236.168 153.213H231.608V155.413" fill="#B8DB70"/>
<path d="M231.609 153.212H227.051L227.451 154.494L227.051 155.411H231.609V153.212Z" fill="#9DC3F3"/>
<path d="M260.381 166.031H255.822L256.222 167.313L255.822 168.229H260.381V166.029" fill="#B8DB70"/>
<path d="M258.495 152.898H250.216V149.678H258.495V152.898Z" fill="#B8DB70"/>
<path d="M263.87 171.792H292.713V148.01H263.87V171.792Z" fill="#655686"/>
<path d="M278.291 171.792H307.131V148.01H278.291V171.792Z" fill="#8474A8"/>
<path d="M263.888 165.761H268.456L268.056 164.475L268.456 163.556H263.888V165.756" fill="#01483F"/>
<path d="M278.291 155.37H282.862L282.462 154.084L282.862 153.165H278.291V155.365" fill="#E3F0FF"/>
<path d="M278.291 153.165H273.72L274.12 154.451L273.72 155.37H278.291V153.17" fill="#01483F"/>
<path d="M307.135 166.017H302.564L302.964 167.303L302.564 168.222H307.135V166.022" fill="#E3F0FF"/>
<path d="M305.244 152.849H296.944V149.621H305.244V152.849Z" fill="white"/>
<path d="M220.922 84.3189H246.794V62.9859H220.922V84.3189Z" fill="#847D3D"/>
<path d="M233.859 84.3189H259.731V62.9859H233.859V84.3189Z" fill="#BDA24D"/>
<path d="M220.938 78.9079H225.038L224.677 77.754L225.038 76.93H220.938V78.9079Z" fill="#45391D"/>
<path d="M233.859 69.587H237.959L237.597 68.434L237.959 67.61H233.859V69.587Z" fill="#B8DB70"/>
<path d="M233.86 67.6089H229.76L230.122 68.763L229.76 69.587H233.86V67.6089Z" fill="#45391D"/>
<path d="M259.731 79.1369H255.631L255.991 80.291L255.631 81.115H259.731V79.1369Z" fill="#B8DB70"/>
<path d="M258.036 67.327H250.592V64.4269H258.036V67.327Z" fill="#B8DB70"/>
<path d="M293.989 84.302H274.379V68.132H293.989V84.302Z" fill="#E65924"/>
<path d="M284.18 84.302H264.571V68.132H284.18V84.302Z" fill="#FD9C28"/>
<path d="M293.974 80.1979H290.867L291.14 79.324L290.867 78.701H293.974V80.201" fill="#45391D"/>
<path d="M284.18 73.135H281.072L281.347 72.2609L281.072 71.638H284.18V73.138" fill="#EAF7F9"/>
<path d="M284.18 71.637H287.287L287.014 72.5109L287.287 73.134H284.18V71.634" fill="#45391D"/>
<path d="M264.571 80.373H267.678L267.405 81.247L267.678 81.872H264.571V80.373Z" fill="#EAF7F9"/>
<path d="M265.855 71.423H271.499V69.2229H265.855V71.423Z" fill="#EAF7F9"/>
<path d="M229.162 71.862H198.31V41.011H229.161L229.162 71.862Z" fill="#002822"/>
<mask id="mask6_2_9714" style="mask-type:luminance" maskUnits="userSpaceOnUse" x="199" y="42" width="29" height="29">
<path d="M227.514 70.213H199.96V42.656H227.514V70.213Z" fill="white"/>
</mask>
<g mask="url(#mask6_2_9714)">
<path d="M227.514 70.213H199.96V42.656H227.514V70.21" fill="url(#paint0_linear_2_9714)"/>
</g>
<path d="M221.648 120.205C221.648 120.205 220.33 117.427 221.363 115.719C222.396 114.011 226.49 113.902 226.49 113.902C226.49 113.902 226.135 114.102 226.116 114.276C226.097 114.45 227.292 113.814 228.11 115.255C228.928 116.696 228.892 118.049 228.019 120.044C227.146 122.039 221.647 120.205 221.647 120.205" fill="#45391D"/>
<path d="M242.234 147.947C239.938 148.178 237.62 148.064 235.357 147.609C234.877 147.51 234.408 147.364 233.957 147.173C233.551 147.026 233.198 146.76 232.946 146.409C232.364 145.044 231.892 143.636 231.533 142.196C229.85 136.349 227.485 126.689 227.485 126.689C227.485 126.689 232.236 127.658 233.242 128.489C234.248 129.32 235.136 142.45 236.079 142.804C236.22 142.856 236.459 142.967 236.767 143.118L236.813 143.14C236.996 143.23 237.203 143.335 237.428 143.452C239.39 144.459 242.239 146.344 242.972 146.68C243.601 146.969 243.386 147.685 242.232 147.95" fill="#FD9C28"/>
<path d="M233.117 134.163C233.116 133.938 233.095 133.713 233.055 133.492C232.444 130.131 227.582 126.757 227.487 126.757C227.356 127.202 227.085 127.593 226.715 127.871C226.344 128.149 225.893 128.3 225.429 128.301C223.95 128.401 222.129 127.66 222.129 126.808C222.12 126.808 221.288 126.808 221.009 126.842C219.397 127.042 217.843 127.567 216.44 128.386C215.475 129.114 216.84 133.706 217.682 136.96C217.992 137.939 218.187 138.951 218.261 139.975C218.239 140.22 218.018 143.559 217.821 146.575C217.658 149.067 217.512 151.34 217.505 151.483C217.495 151.766 218.905 152.757 221.265 153.507C221.88 153.701 222.506 153.863 223.138 153.993C224.48 154.266 225.847 154.4 227.217 154.393C227.705 154.393 228.165 154.367 228.604 154.323C231.979 153.991 233.134 150.146 233.114 134.153" fill="#FD9C28"/>
<path d="M242.24 147.94C242.128 147.968 241.97 147.982 241.772 148.01C240.831 148.074 239.886 148.084 238.944 148.04C237.245 148.017 235.561 147.724 233.955 147.172C234.135 146.342 234.481 145.556 234.972 144.863C235.463 144.17 236.088 143.582 236.811 143.136C237.677 143.562 239.056 144.288 240.294 144.997H240.308C241.628 145.737 242.585 146.545 242.98 146.675C243.631 146.888 243.392 147.685 242.24 147.94Z" fill="#F5C99D"/>
<path d="M222.121 126.662C222.076 125.265 222.132 123.867 222.29 122.479L227.502 123.331C227.502 123.331 227.502 124.921 227.48 126.686C227.48 126.686 227.623 128.322 225.607 128.561C223.591 128.8 222.063 127.924 222.117 126.661" fill="#F5C99D"/>
<path d="M226.483 195.885C225.828 195.485 226.214 192.492 226.214 192.492C226.214 192.492 229.283 190.056 229.697 191.931C230.111 193.806 232.597 194.659 234.008 194.894C234.313 194.907 234.607 195.012 234.851 195.195C235.095 195.378 235.278 195.63 235.377 195.919L226.483 195.885Z" fill="#070707"/>
<path d="M217.08 195.885C216.425 195.485 216.808 192.492 216.808 192.492C216.808 192.492 219.88 190.056 220.292 191.931C220.704 193.806 223.192 194.659 224.603 194.894C224.908 194.907 225.202 195.012 225.446 195.195C225.691 195.378 225.875 195.63 225.974 195.919L217.08 195.885Z" fill="#070707"/>
<path d="M217.511 151.489C217.499 151.773 218.906 152.763 221.269 153.513C221.46 153.573 221.657 153.631 221.86 153.688V153.694C222.081 156.279 222.678 159.933 223.214 163.459C223.355 164.374 223.489 165.278 223.614 166.152C223.925 168.122 224.125 170.108 224.214 172.101V172.117C224.066 173.076 223.859 174.024 223.594 174.957C223.568 175.202 223.545 175.464 223.529 175.735C223.471 176.984 223.487 178.236 223.577 179.484C223.965 185.484 225.549 193.149 226.114 193.475C227.237 194.124 229.282 193.475 230.32 193.322C230.53 193.296 230.723 193.193 230.861 193.034C231 192.874 231.075 192.669 231.072 192.458C230.566 182.511 232.023 168.658 233.112 160.138C233.14 159.917 233.168 159.698 233.197 159.485C233.328 158.485 233.413 157.543 233.466 156.697C233.516 155.955 233.54 155.282 233.551 154.697C233.551 154.516 233.557 154.341 233.557 154.178C233.557 153.643 233.135 150.154 233.117 134.161C233.115 133.983 233.044 133.813 232.917 133.687C232.791 133.562 232.621 133.491 232.443 133.49H222.671C222.446 133.49 222.224 133.534 222.017 133.621C221.81 133.708 221.621 133.835 221.464 133.995C221.306 134.155 221.182 134.344 221.098 134.553C221.014 134.761 220.973 134.984 220.976 135.209C221.006 136.731 220.908 138.252 220.682 139.757C220.321 141.978 219.549 144.057 217.953 144.551C217.948 144.567 217.903 144.664 217.833 144.826C217.817 145.226 217.801 145.636 217.783 146.052C217.783 146.136 217.775 146.221 217.771 146.305C217.771 146.353 217.771 146.405 217.763 146.452C217.763 146.536 217.755 146.623 217.752 146.707C217.745 146.847 217.74 146.988 217.731 147.131C217.726 147.244 217.717 147.354 217.711 147.467C217.701 147.684 217.687 147.903 217.673 148.124C217.673 148.194 217.664 148.265 217.659 148.337C217.641 148.622 217.621 148.914 217.599 149.205C217.593 149.293 217.587 149.384 217.579 149.474C217.579 149.518 217.573 149.56 217.569 149.605C217.561 149.719 217.551 149.834 217.543 149.949C217.535 150.064 217.521 150.194 217.51 150.317C217.472 150.765 217.529 151.165 217.519 151.481" fill="#01483F"/>
<path d="M223.58 179.485C223.968 185.485 225.551 193.151 226.117 193.476C227.241 194.125 229.285 193.476 230.324 193.323C230.534 193.297 230.727 193.194 230.865 193.035C231.004 192.875 231.079 192.67 231.076 192.459C230.569 182.512 232.027 168.659 233.116 160.139C233.144 159.918 233.172 159.699 233.2 159.486C233.331 158.486 233.417 157.544 233.469 156.698C232.953 153.321 230.028 153.14 227.375 160.125C227.705 162.443 224.217 170.541 224.217 172.102V172.118C224.069 173.077 223.862 174.025 223.596 174.958C223.571 175.203 223.547 175.464 223.533 175.736C223.475 176.985 223.491 178.237 223.581 179.484" fill="#002822"/>
<path d="M217.4 171.821C217.127 172.752 216.797 173.665 216.411 174.555C215.07 179.948 215.811 192.733 216.475 193.243C217.504 194.035 219.617 193.659 220.666 193.643C220.877 193.645 221.082 193.569 221.241 193.429C221.399 193.29 221.501 193.097 221.526 192.887C222.35 182.699 225.764 168.707 227.962 160.477C228.61 158.124 229.033 155.716 229.226 153.283C229.226 153.283 218.957 146.992 217.848 150.429C216.865 153.47 218.019 166.5 217.4 171.821Z" fill="#01483F"/>
<path d="M220.656 126.892C220.656 126.892 223.681 130.418 223.856 133.492H222.319C221.95 131.18 221.035 128.99 219.65 127.102L220.65 126.891" fill="#01483F"/>
<path d="M228.181 126.883C229.488 128.87 230.318 131.132 230.607 133.492H232.145C231.843 131.238 230.995 129.091 229.675 127.239C229.104 127.08 228.575 126.964 228.181 126.883Z" fill="#01483F"/>
<path d="M218.238 145.816C218.315 149.426 217.865 156.616 217.865 156.616H215.736C214.988 153.3 214.532 149.925 214.375 146.53C214.375 146.18 214.375 145.855 214.375 145.555C214.389 144.04 214.43 143.155 214.43 143.155C214.03 133.972 215.864 129.061 216.44 128.386C217.016 127.711 219.652 127.102 219.652 127.102C220.16 128.599 220.569 130.128 220.878 131.679C221.233 133.721 218.086 142.296 218.216 145.226C218.224 145.409 218.23 145.606 218.234 145.815" fill="#FD9C28"/>
<path d="M218.11 151.791C218.01 154.391 217.869 156.609 217.869 156.609H215.737C215.367 154.809 215.098 153.226 214.885 151.878C214.59 150.111 214.419 148.325 214.373 146.534C214.373 146.178 214.373 145.853 214.386 145.553C215.671 145.301 217 145.394 218.238 145.822C218.268 147.428 218.196 149.731 218.112 151.792" fill="#F5C99D"/>
<path d="M219.374 159.281C219.402 159.864 216.858 161.199 216.092 160.843C215.326 160.487 215.292 158.469 215.736 156.608C216.18 154.747 217.869 156.608 217.869 156.608C218.487 157.428 218.993 158.327 219.374 159.281Z" fill="#F5C99D"/>
<path d="M247.187 148.009H241.772L242.98 146.675C243.739 146.83 244.521 146.83 245.28 146.675C246.19 146.389 247.187 148.009 247.187 148.009Z" fill="#F5C99D"/>
<path d="M222.166 123.827C222.841 124.643 223.789 125.187 224.834 125.359C225.377 125.32 225.902 125.149 226.364 124.862C226.827 124.574 227.212 124.179 227.487 123.709L222.166 123.827Z" fill="#D8A982"/>
<path d="M227.349 123.84C226.6 124.263 225.78 124.548 224.93 124.68C224.047 124.497 223.178 124.252 222.33 123.946C221.711 123.572 221.751 122.81 221.718 121.753C221.621 120.77 221.614 119.78 221.695 118.796C221.86 117.934 222.409 117.441 223.94 117.309C226.752 117.066 227.924 117.769 227.974 118.709C227.986 118.962 227.998 119.203 228.006 119.433C228.119 122.374 227.886 123.417 227.353 123.833" fill="#F5C99D"/>
<path d="M221.646 120.204C221.646 120.204 221.413 117.694 222.893 117.694C224.373 117.694 226.364 119.581 227.254 118.371C228.144 117.161 228.018 120.043 228.018 120.043L228.109 116.18L222.409 115.967L221.215 116.857L221.642 120.203" fill="#45391D"/>
<path d="M306.803 152.395H289.037V137.745H306.803V152.395Z" fill="#847D3D"/>
<path d="M297.92 152.395H280.152V137.745H297.92V152.395Z" fill="#BDA24D"/>
<path d="M306.792 148.679H303.978L304.225 147.887L303.978 147.32H306.792V148.679Z" fill="#C15E1B"/>
<path d="M297.92 142.279H295.104L295.351 141.487L295.104 140.922H297.92V142.279Z" fill="#B8DB70"/>
<path d="M297.921 140.921H300.735L300.488 141.713L300.735 142.278H297.921V140.921Z" fill="#45391D"/>
<path d="M280.152 148.836H282.966L282.719 149.63L282.966 150.195H280.152V148.836Z" fill="#B8DB70"/>
<path d="M281.316 140.727H286.429V138.737H281.316V140.727Z" fill="#B8DB70"/>
<path d="M288.535 151.77C288.103 151.491 287.126 150.876 287.081 151.022C287.068 151.19 287.122 151.355 287.23 151.484C286.401 151.218 285.509 151.22 284.681 151.492C284.545 151.523 284.416 151.58 284.302 151.662C284.189 151.743 284.093 151.847 284.02 151.966C283.976 152.022 283.946 152.087 283.931 152.156C283.917 152.225 283.919 152.297 283.937 152.366C283.955 152.434 283.989 152.497 284.036 152.55C284.084 152.603 284.142 152.645 284.208 152.671C284.929 153.083 284.714 152.828 285.721 153.429C286.141 153.725 286.633 153.903 287.145 153.945C287.657 153.988 288.171 153.893 288.634 153.67L289.588 153.47L289.646 151.882C289.646 151.882 289.095 151.838 288.535 151.765" fill="#F5C99D"/>
<path d="M313.438 135.42C313.438 135.42 310.708 137.649 308.073 136.009C307.889 135.126 307.842 134.221 307.934 133.324C307.958 133.189 307.98 133.059 308.002 132.934C308.217 131.704 308.302 131.007 308.302 131.007C308.44 130.979 312.983 130.038 312.953 130.181C312.484 131.929 312.654 133.787 313.432 135.421" fill="#F5C99D"/>
<path d="M312.387 130.892C311.231 132.095 309.668 132.823 308.003 132.934C308.218 131.704 308.303 131.007 308.303 131.007C308.426 130.999 312.544 130.694 312.381 130.892" fill="#D8A982"/>
<path d="M307.447 130.715C307.447 130.715 311.979 132.715 313.185 129.877C314.391 127.039 315.785 125.377 312.942 123.977C310.099 122.577 309.073 123.42 308.442 124.277C307.811 125.134 306.301 130.122 307.449 130.717" fill="#F5C99D"/>
<path d="M312.87 130.653C312.929 130.707 313.889 131.212 316.545 127.724C316.85 127.275 317.044 126.759 317.11 126.22C317.175 125.681 317.111 125.134 316.923 124.624C316.432 123.335 314.095 121.959 312.086 121.173C310.077 120.387 309.357 121.464 308.645 122.552C307.999 123.364 307.168 124.008 306.221 124.432C307.829 125.77 310.261 124.741 310.967 125.117C311.673 125.493 311.715 126.725 311.7 127.117C311.685 127.509 311.712 127.836 312.719 127.676C313.726 127.516 312.894 129.091 312.683 129.383C312.683 129.383 312.395 130.211 312.87 130.659" fill="#45391D"/>
<path d="M319.809 206.352H322.729C323.342 206.352 324.024 205.739 324.192 204.617C324.36 203.495 325.621 202.88 325.892 201.962C326.163 201.044 324.768 199.749 324.768 199.749L324.535 199.449L324.291 199.135L321.978 199.68C321.978 199.68 321.92 200.231 321.885 200.934C321.854 201.469 321.851 202.005 321.875 202.54C321.944 203.764 321.532 205.085 320.444 205.324C319.356 205.563 319.806 206.351 319.806 206.351" fill="#070707"/>
<path d="M299.471 206.352H307.213C307.27 206.343 307.325 206.328 307.378 206.306C307.894 206.047 307.734 204.067 307.671 203.456C307.659 203.341 307.65 203.275 307.65 203.275C307.65 203.275 304.927 201.098 304.55 202.766C304.538 202.816 304.524 202.866 304.51 202.919C304.038 204.481 301.924 205.188 300.703 205.385C300.421 205.394 300.149 205.493 299.927 205.667C299.705 205.841 299.544 206.081 299.467 206.352" fill="#070707"/>
<path d="M301.031 161.698C301.031 161.698 301.445 166.858 301.931 173.06C302.59 181.484 303.387 191.833 303.464 193.794C303.599 197.194 304.145 202.642 304.145 202.642C304.684 203.07 305.318 203.361 305.993 203.492C306.669 203.622 307.366 203.588 308.025 203.392C309.499 198.16 310.491 192.805 310.99 187.392L311.02 186.986C311.633 178.613 312.586 160.986 312.586 160.986L301.031 161.698Z" fill="#01483F"/>
<path d="M302.573 161.35C302.573 161.35 302.306 164.57 303.793 170.61C304.886 175.042 310.993 187.389 310.993 187.389C311.003 187.254 311.014 187.12 311.024 186.983C311.636 178.61 312.589 160.983 312.589 160.983L302.576 161.353" fill="#002822"/>
<path d="M302.573 161.354C302.573 161.354 310.373 180.997 315.273 189.779C320.173 198.561 321.705 201.011 321.705 201.011C321.705 201.011 324.513 199.887 324.768 199.122C324.768 199.122 322.895 182.168 319.613 178.036C317.757 175.702 315.579 168.694 315.476 166.244C315.373 163.794 314.813 158.944 314.813 158.944L302.573 161.354Z" fill="#01483F"/>
<path d="M302.182 160.984C303.274 161.048 314.791 160.614 314.792 159.971C314.97 156.536 315.325 153.112 315.856 149.714C315.962 148.894 316.046 148.081 316.109 147.276C316.272 145.302 316.275 143.318 316.12 141.344C315.988 138.577 314.854 135.953 312.929 133.962C312.736 133.799 312.029 134.34 310.835 134.822C309.863 135.136 308.809 135.082 307.874 134.671L306.612 135.782C305.459 136.862 304.531 138.161 303.884 139.603C303.884 139.603 302.084 160.975 302.184 160.983" fill="#97C157"/>
<path d="M303.883 139.604L307.029 140.336L311.358 152.062C311.662 152.884 312.21 153.592 312.928 154.093C313.647 154.594 314.502 154.862 315.378 154.862L315 160.648L301.031 161.696L303.883 139.603" fill="#01483F"/>
<path d="M288.797 152.662C288.697 151.745 289.167 151.575 289.167 151.575C289.167 151.575 298.441 149.521 299.225 149.239C300.009 148.957 306.525 141.639 306.525 141.639C306.525 141.639 309.013 138.604 311.168 139.171C311.926 139.368 312.61 139.783 313.135 140.364C313.66 140.946 314.003 141.669 314.121 142.443C314.293 143.24 314.22 144.07 313.913 144.825C313.606 145.58 313.079 146.225 312.4 146.676C309.288 148.754 303.057 152.853 301.572 153.351C298.267 154.461 289.248 153.906 289.248 153.906C289.005 153.533 288.852 153.108 288.8 152.666" fill="#97C157"/>
<path d="M310.29 136.941C311.021 136.26 313.369 134.39 313.369 134.39L312.929 133.962C312.615 133.895 310.187 135.721 309.379 136.44C308.407 137.306 305.703 140.14 305.703 140.14L307.03 140.34C307.03 140.34 309.43 137.745 310.291 136.945" fill="#01483F"/>
<path d="M131.198 212.018H133.618V169.425H131.198V212.018Z" fill="#002822"/>
<path d="M126.631 171.406H132.647C133.118 171.406 133.57 171.219 133.904 170.886C134.237 170.552 134.424 170.1 134.424 169.629C134.424 169.158 134.237 168.706 133.904 168.372C133.57 168.039 133.118 167.852 132.647 167.852H126.631C126.398 167.852 126.166 167.898 125.951 167.987C125.735 168.076 125.539 168.207 125.374 168.372C125.209 168.537 125.078 168.733 124.989 168.949C124.9 169.164 124.854 169.396 124.854 169.629C124.854 169.862 124.9 170.094 124.989 170.309C125.078 170.525 125.209 170.721 125.374 170.886C125.539 171.051 125.735 171.182 125.951 171.271C126.166 171.36 126.398 171.406 126.631 171.406Z" fill="#45391D"/>
<path d="M133.621 190.72C133.912 190.746 146.665 198.287 146.665 198.287V209.287H133.4L133.621 190.72Z" fill="#002822"/>
<path d="M207.964 212.531C207.964 211.576 207.585 210.661 206.91 209.985C206.234 209.31 205.319 208.931 204.364 208.931C203.891 208.93 203.422 209.023 202.984 209.203C202.547 209.384 202.15 209.649 201.815 209.983C201.48 210.318 201.214 210.715 201.033 211.152C200.851 211.589 200.758 212.058 200.758 212.531C200.758 213.005 200.851 213.474 201.032 213.911C201.213 214.349 201.479 214.746 201.814 215.081C202.149 215.416 202.546 215.682 202.984 215.863C203.421 216.044 203.89 216.137 204.364 216.137C204.837 216.137 205.306 216.044 205.743 215.862C206.18 215.681 206.577 215.415 206.912 215.08C207.246 214.746 207.511 214.348 207.692 213.911C207.872 213.473 207.965 213.004 207.964 212.531Z" fill="#45391D"/>
<path d="M206.615 212.535C206.615 211.936 206.377 211.362 205.954 210.939C205.531 210.516 204.957 210.278 204.358 210.278C204.061 210.278 203.768 210.336 203.493 210.449C203.219 210.562 202.97 210.729 202.76 210.938C202.55 211.148 202.384 211.397 202.27 211.671C202.157 211.945 202.098 212.238 202.098 212.535C202.098 212.832 202.156 213.126 202.27 213.4C202.384 213.674 202.55 213.923 202.76 214.133C202.97 214.342 203.219 214.509 203.493 214.622C203.767 214.736 204.061 214.794 204.358 214.794C204.654 214.794 204.948 214.735 205.222 214.622C205.496 214.508 205.745 214.342 205.954 214.132C206.164 213.922 206.33 213.673 206.443 213.399C206.557 213.125 206.615 212.832 206.615 212.535Z" fill="#070707"/>
<path d="M131.198 212.018H209.475V208.776H131.198V212.018Z" fill="#002822"/>
<path d="M139.361 210.399C139.361 208.876 138.756 207.415 137.679 206.338C136.602 205.261 135.141 204.655 133.618 204.655C132.095 204.655 130.634 205.26 129.556 206.338C128.479 207.415 127.874 208.876 127.873 210.399C127.874 211.922 128.479 213.383 129.557 214.459C130.634 215.536 132.095 216.141 133.618 216.141C135.141 216.141 136.602 215.536 137.679 214.459C138.756 213.382 139.361 211.922 139.361 210.399Z" fill="#45391D"/>
<path d="M137.213 210.398C137.213 209.443 136.834 208.528 136.159 207.852C135.483 207.177 134.568 206.798 133.613 206.798C132.658 206.798 131.743 207.177 131.067 207.852C130.392 208.528 130.013 209.443 130.013 210.398C130.013 211.353 130.392 212.268 131.067 212.944C131.743 213.619 132.658 213.998 133.613 213.998C134.568 213.998 135.483 213.619 136.159 212.944C136.834 212.268 137.213 211.353 137.213 210.398Z" fill="#070707"/>
<path d="M128.46 165.8C128.46 165.8 131.226 166.9 131.372 167.412C131.518 167.924 131.519 169.904 130.785 169.904C130.051 169.904 129.285 168.218 128.954 168.181C128.623 168.144 127.708 167.926 127.598 167.522C127.488 167.118 128.46 165.799 128.46 165.799" fill="#D8A982"/>
<path d="M128.545 166.603C128.945 165.771 128.553 165.453 128.553 165.453C128.553 165.453 120.475 160.46 119.828 159.938C119.181 159.416 115.443 150.353 115.443 150.353C115.443 150.353 114.092 146.669 111.871 146.492C111.09 146.428 110.308 146.594 109.621 146.971C108.933 147.347 108.372 147.917 108.006 148.61C107.581 149.305 107.376 150.113 107.417 150.927C107.457 151.741 107.743 152.524 108.235 153.173C110.488 156.16 115.021 162.083 116.261 163.042C119.017 165.179 127.714 167.627 127.714 167.627C128.067 167.355 128.352 167.005 128.546 166.604" fill="#01483F"/>
<path d="M112.34 215.524H104.598C104.542 215.515 104.486 215.5 104.433 215.478C103.917 215.219 104.077 213.239 104.14 212.628C104.152 212.513 104.16 212.447 104.16 212.447C104.16 212.447 106.884 210.27 107.26 211.939C107.273 211.989 107.286 212.039 107.301 212.092C107.776 213.654 109.888 214.361 111.108 214.558C111.39 214.567 111.662 214.666 111.884 214.84C112.106 215.014 112.267 215.254 112.344 215.525" fill="#01483F"/>
<path d="M107.429 143.574C107.429 143.574 109.272 146.574 112.301 145.897C112.765 145.124 113.108 144.284 113.316 143.407C113.338 143.272 113.358 143.142 113.38 143.017C113.58 141.785 113.728 141.098 113.728 141.098C113.606 141.024 109.628 138.64 109.61 138.785C109.477 140.59 108.705 142.289 107.431 143.575" fill="#F5C99D"/>
<path d="M109.913 139.641C110.608 141.158 111.845 142.361 113.38 143.014C113.58 141.782 113.728 141.095 113.728 141.095C113.616 141.045 109.828 139.401 109.915 139.642" fill="#D8A982"/>
<path d="M114.636 141.099C114.636 141.099 109.695 141.499 109.495 138.418C109.295 135.337 108.522 133.318 111.667 132.931C114.812 132.544 115.502 133.681 115.82 134.694C116.138 135.707 115.92 140.916 114.636 141.099Z" fill="#F5C99D"/>
<path d="M109.535 139.257C109.465 139.289 108.389 139.448 107.035 135.281C106.895 134.756 106.882 134.204 106.997 133.673C107.113 133.142 107.354 132.645 107.7 132.226C108.588 131.173 111.248 130.64 113.4 130.56C115.552 130.48 115.88 131.736 116.194 132.996C116.536 133.975 117.109 134.858 117.864 135.569C115.904 136.304 113.947 134.532 113.157 134.655C112.367 134.778 111.921 135.927 111.806 136.299C111.691 136.671 111.557 136.974 110.66 136.49C109.763 136.006 110.027 137.768 110.131 138.114C110.131 138.114 110.131 138.99 109.531 139.258" fill="#070707"/>
<path d="M92.004 215.529H89.083C88.47 215.529 87.791 214.916 87.62 213.794C87.449 212.672 86.1911 212.057 85.9201 211.139C85.6491 210.221 87.044 208.926 87.044 208.926L87.277 208.626L87.52 208.312L89.833 208.857C89.833 208.857 89.891 209.408 89.926 210.111C89.9577 210.646 89.961 211.182 89.9361 211.717C89.8681 212.941 90.28 214.262 91.367 214.499C92.454 214.736 92.006 215.528 92.006 215.528" fill="#01483F"/>
<path d="M110.781 170.87C110.781 170.87 110.367 176.03 109.881 182.232C109.221 190.656 108.426 201.005 108.347 202.964C108.212 206.364 107.665 211.814 107.665 211.814C107.126 212.242 106.492 212.533 105.817 212.663C105.142 212.794 104.445 212.76 103.786 212.564C102.312 207.332 101.32 201.977 100.822 196.564C100.812 196.429 100.802 196.295 100.792 196.158C100.179 187.785 99.226 170.158 99.226 170.158L110.781 170.872" fill="#FD9C28"/>
<path d="M108.693 171.89C108.693 171.89 109.507 173.747 108.02 179.79C106.927 184.222 100.82 196.569 100.82 196.569C100.81 196.434 100.8 196.3 100.79 196.163C100.177 187.79 99.2239 170.163 99.2239 170.163L108.691 171.896" fill="#E65924"/>
<path d="M109.239 170.527C109.239 170.527 101.439 190.17 96.5391 198.951C91.6391 207.732 90.1071 210.183 90.1071 210.183C90.1071 210.183 87.2991 209.059 87.0441 208.294C87.0441 208.294 88.917 191.34 92.199 187.208C94.054 184.874 96.2331 177.866 96.3361 175.416C96.4391 172.966 96.999 168.116 96.999 168.116L109.242 170.528" fill="#FD9C28"/>
<path d="M109.636 171.415C108.583 171.115 97.8519 166.915 98.0609 166.304C99.0262 163.003 99.8196 159.654 100.438 156.271C100.607 155.461 100.795 154.666 101.001 153.885C101.498 151.97 102.148 150.097 102.943 148.285C103.98 145.716 105.916 143.612 108.39 142.366C108.625 142.278 109.118 143.021 110.085 143.866C110.899 144.483 111.911 144.779 112.929 144.698L113.755 146.165C114.489 147.565 114.936 149.096 115.072 150.671C115.072 150.671 109.731 171.442 109.637 171.416" fill="#01483F"/>
<path d="M115.072 150.671L111.861 150.325L103.912 159.969C103.355 160.645 102.603 161.134 101.759 161.371C100.916 161.607 100.019 161.579 99.192 161.29L96.998 168.116L110.486 172.47L115.072 150.67" fill="#FD9C28"/>
<path d="M109.903 146.045C109.435 145.161 107.833 142.622 107.833 142.622L108.392 142.363C108.712 142.403 110.4 144.928 110.927 145.872C111.56 147.012 113.178 150.572 113.178 150.572L111.862 150.323C111.862 150.323 110.453 147.083 109.904 146.042" fill="#FD9C28"/>
<path d="M125.023 166.817C125.023 166.817 127.791 167.917 127.937 168.431C128.083 168.945 128.082 170.923 127.35 170.923C126.618 170.923 125.85 169.237 125.517 169.2C125.184 169.163 124.271 168.943 124.162 168.539C124.053 168.135 125.022 166.816 125.022 166.816" fill="#F5C99D"/>
<path d="M125.016 167.966C125.416 167.134 125.024 166.816 125.024 166.816C125.024 166.816 116.946 161.823 116.299 161.301C115.652 160.779 111.911 151.716 111.911 151.716C111.911 151.716 110.562 148.032 108.341 147.855C107.56 147.791 106.778 147.958 106.091 148.335C105.404 148.712 104.842 149.282 104.476 149.974C104.051 150.669 103.846 151.477 103.887 152.29C103.927 153.104 104.213 153.887 104.705 154.536C106.958 157.523 111.49 163.446 112.729 164.405C115.485 166.544 124.183 168.992 124.183 168.992C124.535 168.718 124.82 168.367 125.016 167.966Z" fill="#01483F"/>
<path d="M202.098 209.129H169.367V182.14H202.098V209.129Z" fill="#847D3D"/>
<path d="M185.734 209.129H153V182.14H185.734V209.129Z" fill="#BDA24D"/>
<path d="M202.08 202.285H196.892L197.35 200.826L196.892 199.783H202.08V202.283" fill="#45391D"/>
<path d="M185.735 190.498H180.547L181.004 189.037L180.547 187.996H185.735V190.496" fill="#B8DB70"/>
<path d="M185.733 187.992H190.919L190.463 189.451L190.919 190.494H185.733V187.994" fill="#45391D"/>
<path d="M152.995 202.576H158.183L157.726 204.035L158.183 205.078H152.995V202.578" fill="#B8DB70"/>
<path d="M155.143 187.635H164.564V183.969H155.143V187.635Z" fill="#B8DB70"/>
<path d="M169.367 182.418H188.978V166.248H169.369V182.418" fill="#E65924"/>
<path d="M179.171 182.418H198.78V166.248H179.171V182.418Z" fill="#FD9C28"/>
<path d="M169.377 178.318H172.485L172.212 177.444L172.485 176.819H169.377V178.319" fill="#45391D"/>
<path d="M179.171 171.252H182.279L182.005 170.378L182.279 169.753H179.171V171.252Z" fill="#EAF7F9"/>
<path d="M179.17 169.753H176.063L176.336 170.627L176.063 171.252H179.17V169.753Z" fill="#45391D"/>
<path d="M198.778 178.49H195.671L195.947 179.364L195.671 179.989H198.778V178.489" fill="#EAF7F9"/>
<path d="M197.492 169.539H191.85V167.344H197.492V169.539Z" fill="#EAF7F9"/>
<path d="M212.027 54.4981H213.745C214.074 54.5252 214.404 54.4847 214.717 54.3793C215.029 54.2739 215.317 54.1057 215.562 53.8851C215.763 53.6657 215.919 53.4088 216.02 53.1291C216.122 52.8493 216.167 52.5523 216.153 52.2551C216.155 51.9724 216.11 51.6912 216.021 51.423C215.936 51.1766 215.797 50.9525 215.613 50.768C215.418 50.5769 215.184 50.4303 214.927 50.3381C214.616 50.2273 214.287 50.1741 213.956 50.1811C213.67 50.1792 213.386 50.222 213.114 50.308C212.864 50.3881 212.63 50.5113 212.422 50.672C212.227 50.8288 212.067 51.0255 211.954 51.2491C211.837 51.4858 211.778 51.747 211.782 52.011H208.56C208.551 51.378 208.694 50.7521 208.978 50.1861C209.251 49.6456 209.638 49.171 210.113 48.7951C210.619 48.398 211.192 48.0951 211.805 47.901C212.475 47.6867 213.175 47.5794 213.878 47.5831C214.634 47.5753 215.388 47.6764 216.115 47.8831C216.745 48.0585 217.334 48.3575 217.848 48.763C218.331 49.1522 218.717 49.6483 218.976 50.2121C219.254 50.8416 219.39 51.5242 219.376 52.2121C219.376 52.5641 219.321 52.9139 219.213 53.2491C219.104 53.5939 218.942 53.9195 218.733 54.214C218.513 54.5252 218.253 54.8057 217.959 55.048C217.642 55.3134 217.29 55.5336 216.912 55.7021C217.733 55.9635 218.45 56.4794 218.958 57.1751C219.417 57.8601 219.652 58.67 219.633 59.4941C219.645 60.1961 219.493 60.8914 219.191 61.5251C218.905 62.1093 218.491 62.6219 217.981 63.0251C217.437 63.4454 216.818 63.7592 216.158 63.95C215.417 64.1684 214.648 64.2763 213.876 64.2701C213.19 64.2707 212.508 64.1764 211.848 63.99C211.21 63.8159 210.611 63.5249 210.079 63.132C209.562 62.7433 209.136 62.2461 208.831 61.6751C208.5 61.0338 208.337 60.3193 208.356 59.5981H211.578C211.575 59.8859 211.636 60.1708 211.757 60.4321C211.875 60.683 212.046 60.9056 212.257 61.085C212.48 61.2736 212.735 61.4194 213.011 61.5151C213.315 61.6206 213.635 61.6731 213.957 61.6701C214.306 61.6746 214.653 61.6222 214.985 61.5151C215.272 61.42 215.536 61.2653 215.759 61.0611C215.971 60.8666 216.136 60.6274 216.244 60.361C216.359 60.0724 216.417 59.7639 216.413 59.453C216.422 59.0749 216.36 58.6983 216.23 58.3431C216.118 58.0515 215.936 57.7924 215.699 57.589C215.452 57.388 215.164 57.2421 214.856 57.1611C214.495 57.0635 214.121 57.0167 213.747 57.022H212.029V54.501" fill="white"/>
</g>
<defs>
<linearGradient id="paint0_linear_2_9714" x1="-145.239" y1="239.882" x2="-145.239" y2="239.882" gradientUnits="userSpaceOnUse">
<stop stop-color="#FDB43C"/>
<stop offset="1" stop-color="#F47A11"/>
</linearGradient>
<clipPath id="clip0_2_9714">
<rect width="334.219" height="216.141" fill="white"/>
</clipPath>
</defs>
</svg>
