<svg width="21" height="21" viewBox="0 0 21 21" fill="none" xmlns="http://www.w3.org/2000/svg">
<path d="M18.7298 15.8629C18.7298 16.1629 18.6631 16.4712 18.5215 16.7712C18.3798 17.0712 18.1965 17.3545 17.9548 17.6212C17.5465 18.0712 17.0965 18.3962 16.5881 18.6045C16.0881 18.8129 15.5465 18.9212 14.9631 18.9212C14.1131 18.9212 13.2048 18.7212 12.2465 18.3129C11.2881 17.9045 10.3298 17.3545 9.3798 16.6629C8.42147 15.9629 7.51313 15.1879 6.64647 14.3295C5.78813 13.4629 5.01313 12.5545 4.32147 11.6045C3.63813 10.6545 3.08813 9.70452 2.68813 8.76285C2.28813 7.81285 2.08813 6.90452 2.08813 6.03785C2.08813 5.47118 2.18813 4.92952 2.38813 4.42952C2.58813 3.92118 2.9048 3.45452 3.34647 3.03785C3.8798 2.51285 4.46313 2.25452 5.0798 2.25452C5.31314 2.25452 5.54647 2.30452 5.7548 2.40452C5.97147 2.50452 6.16314 2.65452 6.31314 2.87118L8.24647 5.59618C8.39647 5.80452 8.5048 5.99618 8.5798 6.17952C8.6548 6.35452 8.69647 6.52952 8.69647 6.68785C8.69647 6.88785 8.63814 7.08785 8.52147 7.27952C8.41314 7.47118 8.2548 7.67118 8.0548 7.87118L7.42147 8.52952C7.3298 8.62118 7.28813 8.72952 7.28813 8.86285C7.28813 8.92952 7.29647 8.98785 7.31314 9.05452C7.33814 9.12118 7.36314 9.17118 7.3798 9.22118C7.5298 9.49618 7.78813 9.85452 8.1548 10.2879C8.5298 10.7212 8.9298 11.1629 9.36313 11.6045C9.81313 12.0462 10.2465 12.4545 10.6881 12.8295C11.1215 13.1962 11.4798 13.4462 11.7631 13.5962C11.8048 13.6129 11.8548 13.6379 11.9131 13.6629C11.9798 13.6879 12.0465 13.6962 12.1215 13.6962C12.2631 13.6962 12.3715 13.6462 12.4631 13.5545L13.0965 12.9295C13.3048 12.7212 13.5048 12.5629 13.6965 12.4629C13.8881 12.3462 14.0798 12.2879 14.2881 12.2879C14.4465 12.2879 14.6131 12.3212 14.7965 12.3962C14.9798 12.4712 15.1715 12.5795 15.3798 12.7212L18.1381 14.6795C18.3548 14.8295 18.5048 15.0045 18.5965 15.2128C18.6798 15.4212 18.7298 15.6295 18.7298 15.8629Z" stroke="#32BC62" stroke-width="1.5" stroke-miterlimit="10"/>
</svg>
